<svg width="28" height="28" viewBox="0 0 28 28" fill="none" xmlns="http://www.w3.org/2000/svg">
<path d="M21.1935 21.7805C23.0165 23.2422 24.0962 24.6436 24.0962 27.125M6.80649 21.7805C4.9835 23.2422 3.90385 24.6429 3.90385 27.125M22.0769 11.2159C23.8999 9.75426 24.0962 7.73145 24.0962 5.25M5.92308 11.0916C4.10009 9.62997 3.90385 7.73207 3.90385 5.25M27.125 16.1956H22.0769M5.92308 16.1956H0.875M14 10.2216V26.1307" stroke="black" stroke-width="1.5" stroke-linecap="round" stroke-linejoin="round"/>
<path d="M14 26.25C9.66875 26.25 6.125 22.6283 6.125 18.2018V12.1612C6.125 8.06978 9.66875 6.125 14 6.125C18.3313 6.125 21.875 7.73465 21.875 12.1612V18.2018C21.875 22.6283 18.3313 26.25 14 26.25Z" stroke="black" stroke-width="1.5" stroke-linecap="round" stroke-linejoin="round"/>
<path d="M8.97509 7C8.84378 6.67817 8.76772 6.33738 8.75 5.99135C8.75364 4.6355 9.30648 3.3362 10.2877 2.37747C11.2689 1.41874 12.5986 0.878554 13.9862 0.875H14.0138C15.4014 0.878554 16.7311 1.41874 17.7123 2.37747C18.6935 3.3362 19.2464 4.6355 19.25 5.99135C19.2373 6.30637 19.168 6.61676 19.0452 6.9083" stroke="black" stroke-width="1.5" stroke-linecap="round" stroke-linejoin="round"/>
</svg>
