<svg width="22" height="28" viewBox="0 0 22 28" fill="none" xmlns="http://www.w3.org/2000/svg">
<path d="M0 19.9558V4.94118C0 3.8662 0.294905 3.00204 0.884715 2.34871C1.47452 1.69537 2.27281 1.19467 3.27957 0.846588C4.28633 0.49851 5.45705 0.271216 6.79171 0.164706C8.12638 0.0581959 9.52914 0.00329412 11 0C12.5274 0 13.9564 0.0543529 15.2869 0.163059C16.6173 0.271765 17.7818 0.500157 18.7801 0.848235C19.7785 1.19631 20.5648 1.69647 21.1389 2.34871C21.713 3.00094 22 3.8651 22 4.94118V19.9558C22 21.2789 21.56 22.4016 20.68 23.324C19.801 24.2453 18.7304 24.7059 17.468 24.7059L19.3411 26.6692C19.5852 26.925 19.6444 27.2105 19.5187 27.5256C19.393 27.8408 19.1573 27.9989 18.8116 28C18.7089 28 18.613 27.9813 18.524 27.944C18.4339 27.9078 18.3538 27.8529 18.2836 27.7793L15.3513 24.7059H6.64871L3.718 27.7793C3.64676 27.8529 3.56662 27.9078 3.47757 27.944C3.38748 27.9813 3.29109 28 3.18843 28C2.84795 28 2.61381 27.8424 2.486 27.5273C2.35819 27.2111 2.41581 26.9256 2.65886 26.6708L4.53357 24.7059C3.27014 24.7059 2.19895 24.2447 1.32 23.3224C0.44 22.4022 0 21.28 0 19.9558ZM11 1.64706C7.92105 1.64706 5.67967 1.86118 4.27586 2.28941C2.87205 2.71655 2.02505 3.34737 1.73486 4.18188H20.3013C20.0289 3.3342 19.1892 2.70008 17.7823 2.27953C16.3753 1.85788 14.1146 1.64706 11 1.64706ZM1.57143 13.1765H10.2143V5.82894H1.57143V13.1765ZM17.468 14.8235H1.57143H20.4286H17.468ZM11.7857 13.1765H20.4286V5.82894H11.7857V13.1765ZM5.5 20.7793C5.99971 20.7793 6.41667 20.6036 6.75086 20.2522C7.08505 19.9009 7.25267 19.4638 7.25371 18.9412C7.25476 18.4185 7.08714 17.9815 6.75086 17.6301C6.41457 17.2787 5.99762 17.1031 5.5 17.1031C5.00238 17.1031 4.58543 17.2787 4.24914 17.6301C3.91286 17.9815 3.74524 18.4185 3.74629 18.9412C3.74733 19.4638 3.91495 19.9009 4.24914 20.2522C4.58333 20.6036 5.00029 20.7793 5.5 20.7793ZM16.5 20.7793C16.9997 20.7793 17.4167 20.6036 17.7509 20.2522C18.085 19.9009 18.2527 19.4638 18.2537 18.9412C18.2548 18.4185 18.0871 17.9815 17.7509 17.6301C17.4146 17.2787 16.9976 17.1031 16.5 17.1031C16.0024 17.1031 15.5854 17.2787 15.2491 17.6301C14.9129 17.9815 14.7452 18.4185 14.7463 18.9412C14.7473 19.4638 14.915 19.9009 15.2491 20.2522C15.5833 20.6036 16.0003 20.7793 16.5 20.7793ZM4.53357 23.0588H17.4664C18.2888 23.0588 18.9881 22.7569 19.5643 22.1529C20.1405 21.549 20.4286 20.8161 20.4286 19.9541V14.8235H1.57143V19.9558C1.57143 20.8166 1.85952 21.549 2.43571 22.1529C3.01191 22.7569 3.71119 23.0588 4.53357 23.0588ZM11 4.18188H20.3013H1.73486H11Z" fill="black"/>
</svg>
