<svg width="25" height="28" viewBox="0 0 25 28" fill="none" xmlns="http://www.w3.org/2000/svg">
<path d="M12.375 13.4773C11.6197 13.4773 10.8954 13.1527 10.3613 12.575C9.82731 11.9972 9.52728 11.2137 9.52728 10.3966C9.52728 9.57958 9.82731 8.79601 10.3613 8.21828C10.8954 7.64055 11.6197 7.31598 12.375 7.31598C13.1304 7.31598 13.8549 7.64062 14.389 8.21849C14.9232 8.79635 15.2233 9.58011 15.2233 10.3973C15.2233 11.2146 14.9232 11.9983 14.389 12.5762C13.8549 13.154 13.1304 13.4787 12.375 13.4787V18.0989" stroke="black" stroke-width="1.5" stroke-linecap="round" stroke-linejoin="round"/>
<path d="M23.75 13.9708V6.47847C23.75 5.90361 23.5827 5.34333 23.272 4.87701C22.9612 4.41069 22.5227 4.06198 22.0186 3.88029L15.5729 1.55455C13.4957 0.815149 11.2542 0.815149 9.17709 1.55455L2.73143 3.87887C2.22749 4.06048 1.78913 4.40898 1.47839 4.87501C1.16765 5.34105 1.00029 5.90101 1 6.47563V13.9679C1.00024 15.8174 1.43386 17.6365 2.26034 19.2555C3.08682 20.8744 4.27919 22.2403 5.72603 23.2255L11.0358 26.8354C11.4376 27.1064 11.9015 27.25 12.375 27.25C12.8485 27.25 13.3124 27.1064 13.7142 26.8354L19.0227 23.2255C20.4696 22.2406 21.6621 20.875 22.4888 19.2563C23.3155 17.6377 23.7494 15.8187 23.75 13.9694" stroke="black" stroke-width="1.5" stroke-linecap="round" stroke-linejoin="round"/>
</svg>
