<svg width="30" height="30" viewBox="0 0 30 30" fill="none" xmlns="http://www.w3.org/2000/svg">
<path d="M27.7273 15H29M15 2.27273V1M15 29V27.7273M25.1818 25.1818L23.9091 23.9091M25.1818 4.81818L23.9091 6.09091M4.81818 25.1818L6.09091 23.9091M4.81818 4.81818L6.09091 6.09091M1 15H2.27273M15 22.6364C17.0253 22.6364 18.9676 21.8318 20.3997 20.3997C21.8318 18.9676 22.6364 17.0253 22.6364 15C22.6364 12.9747 21.8318 11.0324 20.3997 9.60028C18.9676 8.16818 17.0253 7.36364 15 7.36364C12.9747 7.36364 11.0324 8.16818 9.60028 9.60028C8.16818 11.0324 7.36364 12.9747 7.36364 15C7.36364 17.0253 8.16818 18.9676 9.60028 20.3997C11.0324 21.8318 12.9747 22.6364 15 22.6364Z" stroke="black" stroke-width="1.5" stroke-linecap="round" stroke-linejoin="round"/>
</svg>
