<svg width="14" height="24" viewBox="0 0 14 24" fill="none" xmlns="http://www.w3.org/2000/svg">
<path fill-rule="evenodd" clip-rule="evenodd" d="M3.04324 11.8842C6.26324 8.65392 9.41044 5.50206 12.4848 2.42859C12.6458 2.25942 12.7355 2.03487 12.7355 1.80139C12.7355 1.56791 12.6458 1.34336 12.4848 1.17419C12.0494 0.689791 11.3606 0.731791 11.047 1.06219C7.86065 4.25699 4.52725 7.59599 1.04684 11.0792C0.770578 11.306 0.632444 11.5739 0.632444 11.8828C0.632444 12.1917 0.770578 12.468 1.04684 12.7116L11.523 22.94C11.7242 23.1245 11.9892 23.2235 12.2621 23.2159C12.5349 23.2083 12.7941 23.0948 12.9846 22.8994C13.4858 22.3968 13.2926 21.9012 13.0658 21.666C9.71972 18.4098 6.37839 15.1488 3.04184 11.8828" fill="#6E6E6E"/>
</svg>
