<svg width="25" height="24" viewBox="0 0 25 24" fill="none" xmlns="http://www.w3.org/2000/svg">
<g clip-path="url(#clip0_1_3)">
<path d="M17 10.5C17 12.99 14.99 15 12.5 15C10.01 15 8 12.99 8 10.5C8 8.01 10.01 6 12.5 6C14.99 6 17 8.01 17 10.5Z" fill="#1E1E1E"/>
<path fill-rule="evenodd" clip-rule="evenodd" d="M24.5 12C24.5 18.63 19.13 24 12.5 24C5.87 24 0.5 18.63 0.5 12C0.5 5.37 5.87 0 12.5 0C19.13 0 24.5 5.37 24.5 12ZM6.5 20.625C6.74 20.226 9.065 16.5 12.485 16.5C15.89 16.5 18.23 20.235 18.47 20.625C19.8648 19.6605 21.0044 18.3716 21.7909 16.8692C22.5774 15.3668 22.9872 13.6958 22.985 12C22.985 6.195 18.29 1.5 12.485 1.5C6.68 1.5 1.985 6.195 1.985 12C1.985 15.57 3.77 18.735 6.5 20.625Z" fill="#1E1E1E"/>
</g>
<defs>
<clipPath id="clip0_1_3">
<rect width="25" height="24" fill="white"/>
</clipPath>
</defs>
</svg>
