<svg width="54" height="54" viewBox="0 0 54 54" fill="none" xmlns="http://www.w3.org/2000/svg">
<path d="M47.25 3.375H6.75C4.89375 3.375 3.375 4.89375 3.375 6.75V47.25C3.375 49.1063 4.89375 50.625 6.75 50.625H32.0625V47.25C32.0625 42.525 35.775 38.8125 40.5 38.8125V35.4375C33.9187 35.4375 28.6875 40.6687 28.6875 47.25H23.625V40.5H20.25V47.25H6.75V6.75H20.25V30.375H23.625V21.9375H30.375V18.5625H23.625V6.75H47.25V18.5625H40.5V21.9375H47.25V47.25H40.5V50.625H47.25C49.1063 50.625 50.625 49.1063 50.625 47.25V6.75C50.625 4.89375 49.1063 3.375 47.25 3.375Z" fill="black"/>
</svg>
