<svg width="54" height="54" viewBox="0 0 54 54" fill="none" xmlns="http://www.w3.org/2000/svg">
<path d="M27 40.5L16.7231 25.9875C15.041 24.0014 13.9577 21.5783 13.5995 19.0004C13.2412 16.4225 13.6228 13.7958 14.6997 11.4263C15.7765 9.05685 17.5044 7.04208 19.6821 5.61666C21.8598 4.19124 24.3976 3.41384 27 3.375C30.6074 3.41065 34.0537 4.8745 36.5841 7.44595C39.1144 10.0174 40.5225 13.4868 40.5 17.0944C40.5014 20.2415 39.43 23.295 37.4625 25.7513L27 40.5ZM27 6.75C24.2862 6.78116 21.6958 7.88801 19.7974 9.8275C17.8991 11.767 16.848 14.3806 16.875 17.0944C16.8878 19.5711 17.7787 21.9629 19.3894 23.8444L27 34.6275L34.8131 23.625C36.2983 21.7712 37.113 19.4697 37.125 17.0944C37.152 14.3806 36.1009 11.767 34.2026 9.8275C32.3042 7.88801 29.7137 6.78116 27 6.75Z" fill="black"/>
<path d="M27 18.5625C28.864 18.5625 30.375 17.0515 30.375 15.1875C30.375 13.3235 28.864 11.8125 27 11.8125C25.136 11.8125 23.625 13.3235 23.625 15.1875C23.625 17.0515 25.136 18.5625 27 18.5625Z" fill="black"/>
<path d="M47.25 20.25H43.875V23.625H47.25V47.25H6.75V23.625H10.125V20.25H6.75C5.85489 20.25 4.99645 20.6056 4.36351 21.2385C3.73058 21.8715 3.375 22.7299 3.375 23.625V47.25C3.375 48.1451 3.73058 49.0035 4.36351 49.6365C4.99645 50.2694 5.85489 50.625 6.75 50.625H47.25C48.1451 50.625 49.0035 50.2694 49.6365 49.6365C50.2694 49.0035 50.625 48.1451 50.625 47.25V23.625C50.625 22.7299 50.2694 21.8715 49.6365 21.2385C49.0035 20.6056 48.1451 20.25 47.25 20.25Z" fill="black"/>
</svg>
