<svg width="54" height="54" viewBox="0 0 54 54" fill="none" xmlns="http://www.w3.org/2000/svg">
<path d="M44.5814 4H9.4186C8.51193 4 7.6424 4.3326 7.00129 4.92462C6.36017 5.51665 6 6.31961 6 7.15686V46.8431C6 47.6804 6.36017 48.4833 7.00129 49.0754C7.6424 49.6674 8.51193 50 9.4186 50H44.5814C45.4881 50 46.3576 49.6674 46.9987 49.0754C47.6398 48.4833 48 47.6804 48 46.8431V7.15686C48 6.31961 47.6398 5.51665 46.9987 4.92462C46.3576 4.3326 45.4881 4 44.5814 4ZM32.8605 30.1569H45.0698V36.4706H22.6047V30.1569H32.8605ZM34.3256 27.451V21.1373H45.0698V27.451H34.3256ZM9.4186 6.70588H44.5814C44.7109 6.70588 44.8351 6.7534 44.9267 6.83797C45.0183 6.92255 45.0698 7.03726 45.0698 7.15686V18.4314H32.8605C32.4719 18.4314 32.0992 18.5739 31.8245 18.8276C31.5497 19.0814 31.3953 19.4255 31.3953 19.7843V27.451H21.1395C20.751 27.451 20.3783 27.5935 20.1035 27.8472C19.8288 28.101 19.6744 28.4451 19.6744 28.8039V36.4706H8.93023V7.15686C8.93023 7.03726 8.98169 6.92255 9.07327 6.83797C9.16486 6.7534 9.28908 6.70588 9.4186 6.70588ZM44.5814 47.2941H9.4186C9.28908 47.2941 9.16486 47.2466 9.07327 47.162C8.98169 47.0775 8.93023 46.9627 8.93023 46.8431V39.1765H45.0698V46.8431C45.0698 46.9627 45.0183 47.0775 44.9267 47.162C44.8351 47.2466 44.7109 47.2941 44.5814 47.2941Z" fill="black"/>
</svg>
