<svg width="54" height="54" viewBox="0 0 54 54" fill="none" xmlns="http://www.w3.org/2000/svg">
<path fill-rule="evenodd" clip-rule="evenodd" d="M38.8125 47.25C47.2163 47.25 54 43.875 54 38.8125V6.75C54 3.375 47.25 0 38.8125 0C30.375 0 23.625 3.375 23.625 6.75V18.5625C27.5737 20.2163 30.9488 22.9838 33.345 26.4938C34.9988 26.8178 36.8213 26.9966 38.8125 26.9966C43.2338 26.9966 46.9125 26.1158 49.545 24.6814C49.9187 24.476 50.2825 24.253 50.6351 24.0131V28.6706C50.6351 29.4638 50.004 30.6956 47.9284 31.8296C45.9169 32.9265 42.8321 33.7331 38.8159 33.7331C38.0126 33.7331 37.2476 33.7028 36.5209 33.642C36.7909 34.7513 36.9709 35.8875 37.0609 37.0508C37.6301 37.0823 38.2151 37.098 38.8159 37.098C43.2371 37.098 46.9159 36.2171 49.5484 34.7828C49.9221 34.5773 50.2859 34.3543 50.6385 34.1145V38.772C50.6385 39.5685 50.1356 40.7498 47.9689 41.9175C45.8359 43.065 42.6364 43.8345 38.8226 43.8345C38.0464 43.8345 37.2949 43.803 36.5681 43.74C36.3087 44.8618 35.9599 45.9611 35.5253 47.0273C36.5873 47.1465 37.6852 47.2061 38.8192 47.2061L38.8125 47.25ZM47.925 21.735C50.0006 20.601 50.6318 19.3691 50.6318 18.576V13.9185C50.283 14.157 49.9196 14.3798 49.5416 14.5868C46.9159 16.0211 43.2304 16.902 38.8091 16.902C34.3879 16.902 30.7091 16.0211 28.0766 14.5868C27.7029 14.3813 27.3391 14.1583 26.9865 13.9185V18.576C26.9865 19.3691 27.6176 20.601 29.6933 21.7316C31.7048 22.8285 34.7895 23.6351 38.8058 23.6351C42.822 23.6351 45.8932 22.8285 47.9182 21.7316L47.925 21.735ZM27 8.4375C27 7.4655 27.4219 6.53063 28.2082 5.96025C28.6369 5.64975 29.1026 5.33925 29.4705 5.1705C30.3919 4.74525 35.0055 3.37163 38.8192 3.37163C42.633 3.37163 45.9405 4.13775 48.168 5.1705C48.5865 5.36287 49.0489 5.66325 49.4573 5.96025C50.2369 6.52388 50.6385 7.452 50.6385 8.41388V8.43413C50.6385 9.22725 50.0074 10.4591 47.9317 11.5931C45.9202 12.69 42.8355 13.4966 38.8192 13.4966C34.803 13.4966 31.7318 12.6866 29.7068 11.5931C27.6311 10.4625 27 9.22725 27 8.4375Z" fill="black"/>
<path fill-rule="evenodd" clip-rule="evenodd" d="M30.375 38.8125C30.375 47.2163 23.5913 54 15.1875 54C6.78375 54 0 47.2163 0 38.8125C0 30.4087 6.78375 23.625 15.1875 23.625C23.5913 23.625 30.375 30.4087 30.375 38.8125ZM27 38.8125C27 45.3262 21.7012 50.625 15.1875 50.625C8.67375 50.625 3.375 45.3262 3.375 38.8125C3.375 32.2988 8.67375 27 15.1875 27C21.7012 27 27 32.2988 27 38.8125Z" fill="black"/>
</svg>
