<svg width="14" height="24" viewBox="0 0 14 24" fill="none" xmlns="http://www.w3.org/2000/svg">
<path fill-rule="evenodd" clip-rule="evenodd" d="M10.889 12.1442C7.669 15.3745 4.52181 18.5263 1.44741 21.5998C1.28648 21.769 1.19674 21.9935 1.19674 22.227C1.19674 22.4605 1.28648 22.685 1.44741 22.8542C1.88281 23.3386 2.5716 23.2966 2.8852 22.9662C6.0716 19.7714 9.405 16.4324 12.8854 12.9492C13.1617 12.7224 13.2998 12.4545 13.2998 12.1456C13.2998 11.8367 13.1617 11.5604 12.8854 11.3168L2.4092 1.08839C2.20809 0.903857 1.94302 0.804896 1.67018 0.812474C1.39734 0.820053 1.13817 0.933579 0.947605 1.12899C0.446405 1.63159 0.639605 2.12719 0.866405 2.36239C4.21252 5.61855 7.55386 8.87962 10.8904 12.1456" fill="#6E6E6E"/>
</svg>
