<svg width="21" height="21" viewBox="0 0 21 21" fill="none" xmlns="http://www.w3.org/2000/svg">
<path d="M11.4961 0.583718C11.3969 0.406675 11.2523 0.259271 11.0771 0.156676C10.902 0.0540804 10.7027 0 10.4998 0C10.2968 0 10.0975 0.0540804 9.92241 0.156676C9.74729 0.259271 9.60268 0.406675 9.50344 0.583718C9.27011 1.00839 9.04572 1.4385 8.83028 1.87405C8.15151 3.25183 7.57441 4.67741 7.10361 6.13939C6.94144 6.64222 6.46078 6.99105 5.91011 7.00622C4.24086 7.0501 2.57705 7.21582 0.931945 7.50205C0.0289447 7.66072 -0.310555 8.68972 0.331111 9.31739C0.477333 9.46127 0.625111 9.60322 0.774445 9.74322C1.89102 10.7977 3.07159 11.7823 4.30944 12.6914C4.73761 13.0052 4.91378 13.5431 4.75044 14.0354C4.12825 15.9056 3.68297 17.8301 3.42044 19.7836C3.30378 20.6644 4.24644 21.2862 5.06544 20.8662C6.68949 20.0335 8.24248 19.0689 9.70878 17.9822C9.93845 17.8146 10.2154 17.7242 10.4998 17.7242C10.7841 17.7242 11.0611 17.8146 11.2908 17.9822C12.7568 19.0694 14.3098 20.034 15.9341 20.8662C16.7519 21.2862 17.6958 20.6644 17.5791 19.7836C17.534 19.453 17.4846 19.1244 17.4309 18.7977C17.1614 17.182 16.7663 15.5897 16.2491 14.0354C16.0858 13.5431 16.2608 13.0052 16.6901 12.6914C18.0945 11.6624 19.4239 10.5349 20.6684 9.31739C21.3101 8.68972 20.9718 7.66072 20.0676 7.50205C18.4227 7.21415 16.7588 7.04842 15.0894 7.00622C14.8255 7.00202 14.5693 6.91653 14.3557 6.76141C14.1421 6.60629 13.9816 6.38908 13.8959 6.13939C13.2761 4.21517 12.4724 2.35392 11.4961 0.583718Z" fill="#DDDDDD"/>
</svg>
