<svg width="195" height="40" viewBox="0 0 195 40" fill="none" xmlns="http://www.w3.org/2000/svg">
<path d="M10.7171 15.2722L16.9247 18.2778L23.1323 21.2833L35.2833 15.2722V29.2079C35.2833 32.887 29.0493 37.515 23.1323 38.1891C17.4862 37.2903 10.7171 32.887 10.7171 29.2079V15.2722Z" fill="#ADEED9"/>
<path d="M44.2645 23.0089V11.0516L23.1323 2L2 11.0516L23.1323 21.2832M23.1323 21.2832L35.2833 15.2721V29.2078C35.2833 32.8869 29.0493 37.5149 23.1323 38.189C17.4862 37.2902 10.7171 32.8869 10.7171 29.2078V15.2721L16.9247 18.2777L23.1323 21.2832Z" stroke="#0ABAB5" stroke-width="3" stroke-miterlimit="9.56677" stroke-linecap="round" stroke-linejoin="round"/>
<path d="M27.887 23.4842L24.1889 25.4214V29.2956M27.887 23.4842L29.7361 22.5157L31.5852 21.5471V25.4214M27.887 23.4842V27.3585M24.1889 29.2956V33.1699L27.887 31.2327M24.1889 29.2956L27.887 27.3585M31.5852 25.4214V29.2956L27.887 31.2327M31.5852 25.4214L27.887 27.3585M27.887 27.3585V31.2327" stroke="#0ABAB5" stroke-width="1.5" stroke-linejoin="round"/>
<path d="M66.7045 32.9645C63.3205 32.9645 60.7285 32.0765 58.9285 30.3005C57.1525 28.5245 56.2645 25.8965 56.2645 22.4165V7.26055H60.0085V22.3445C60.0085 24.8165 60.5725 26.6645 61.7005 27.8885C62.8525 29.1125 64.5205 29.7245 66.7045 29.7245C68.9125 29.7245 70.5805 29.1125 71.7085 27.8885C72.8365 26.6645 73.4005 24.8165 73.4005 22.3445V7.26055H77.0725V22.4165C77.0725 25.8965 76.1965 28.5245 74.4445 30.3005C72.6925 32.0765 70.1125 32.9645 66.7045 32.9645ZM81.0109 32.6405V15.0725H84.5389V18.8165H84.1429C84.6709 17.4725 85.4989 16.4645 86.6269 15.7925C87.7549 15.0965 89.0509 14.7485 90.5149 14.7485C91.9069 14.7485 93.0589 15.0125 93.9709 15.5405C94.9069 16.0445 95.6029 16.8245 96.0589 17.8805C96.5149 18.9125 96.7429 20.2205 96.7429 21.8045V32.6405H93.1069V22.0205C93.1069 21.0125 92.9749 20.1965 92.7109 19.5725C92.4469 18.9245 92.0509 18.4445 91.5229 18.1325C90.9949 17.8205 90.3109 17.6645 89.4709 17.6645C88.5109 17.6645 87.6589 17.8685 86.9149 18.2765C86.1949 18.6845 85.6309 19.2725 85.2229 20.0405C84.8389 20.8085 84.6469 21.6965 84.6469 22.7045V32.6405H81.0109ZM99.9887 11.0045V7.22455H104.237V11.0045H99.9887ZM100.313 32.6405V15.0725H103.949V32.6405H100.313ZM110.903 32.6405V7.26055H121.415C124.151 7.26055 126.263 7.90855 127.751 9.20455C129.239 10.5005 129.983 12.3365 129.983 14.7125C129.983 16.2485 129.647 17.5685 128.975 18.6725C128.303 19.7765 127.319 20.6165 126.023 21.1925C124.751 21.7685 123.215 22.0565 121.415 22.0565L121.739 21.5525H122.675C123.635 21.5525 124.463 21.7925 125.159 22.2725C125.879 22.7525 126.527 23.5205 127.103 24.5765L131.495 32.6405H127.391L122.999 24.5405C122.663 23.9165 122.291 23.4365 121.883 23.1005C121.499 22.7405 121.043 22.5005 120.515 22.3805C120.011 22.2365 119.411 22.1645 118.715 22.1645H114.647V32.6405H110.903ZM114.647 19.3565H120.803C122.627 19.3565 124.007 18.9725 124.943 18.2045C125.879 17.4365 126.347 16.2965 126.347 14.7845C126.347 13.2965 125.879 12.1685 124.943 11.4005C124.007 10.6325 122.627 10.2485 120.803 10.2485H114.647V19.3565ZM139.921 32.9645C138.145 32.9645 136.609 32.5925 135.313 31.8485C134.041 31.1045 133.045 30.0485 132.325 28.6805C131.605 27.3125 131.245 25.7045 131.245 23.8565C131.245 21.9845 131.605 20.3765 132.325 19.0325C133.045 17.6645 134.041 16.6085 135.313 15.8645C136.609 15.1205 138.145 14.7485 139.921 14.7485C141.673 14.7485 143.185 15.1205 144.457 15.8645C145.753 16.6085 146.761 17.6645 147.481 19.0325C148.201 20.4005 148.561 22.0085 148.561 23.8565C148.561 25.7045 148.201 27.3125 147.481 28.6805C146.761 30.0485 145.753 31.1045 144.457 31.8485C143.185 32.5925 141.673 32.9645 139.921 32.9645ZM139.885 30.1565C141.397 30.1565 142.609 29.6165 143.521 28.5365C144.433 27.4565 144.889 25.8965 144.889 23.8565C144.889 21.7925 144.433 20.2325 143.521 19.1765C142.609 18.1205 141.397 17.5925 139.885 17.5925C138.397 17.5925 137.197 18.1205 136.285 19.1765C135.373 20.2325 134.917 21.7925 134.917 23.8565C134.917 25.8965 135.373 27.4565 136.285 28.5365C137.197 29.6165 138.397 30.1565 139.885 30.1565ZM158.116 32.9645C156.34 32.9645 154.804 32.5925 153.508 31.8485C152.236 31.1045 151.24 30.0485 150.52 28.6805C149.8 27.3125 149.44 25.7045 149.44 23.8565C149.44 21.9845 149.8 20.3765 150.52 19.0325C151.24 17.6645 152.236 16.6085 153.508 15.8645C154.804 15.1205 156.34 14.7485 158.116 14.7485C159.868 14.7485 161.38 15.1205 162.652 15.8645C163.948 16.6085 164.956 17.6645 165.676 19.0325C166.396 20.4005 166.756 22.0085 166.756 23.8565C166.756 25.7045 166.396 27.3125 165.676 28.6805C164.956 30.0485 163.948 31.1045 162.652 31.8485C161.38 32.5925 159.868 32.9645 158.116 32.9645ZM158.08 30.1565C159.592 30.1565 160.804 29.6165 161.716 28.5365C162.628 27.4565 163.084 25.8965 163.084 23.8565C163.084 21.7925 162.628 20.2325 161.716 19.1765C160.804 18.1205 159.592 17.5925 158.08 17.5925C156.592 17.5925 155.392 18.1205 154.48 19.1765C153.568 20.2325 153.112 21.7925 153.112 23.8565C153.112 25.8965 153.568 27.4565 154.48 28.5365C155.392 29.6165 156.592 30.1565 158.08 30.1565ZM168.752 32.6405V15.0725H172.28V18.8165H171.884C172.196 17.9525 172.628 17.2205 173.18 16.6205C173.732 16.0205 174.392 15.5645 175.16 15.2525C175.952 14.9165 176.816 14.7485 177.752 14.7485C179.216 14.7485 180.404 15.0965 181.316 15.7925C182.228 16.4885 182.852 17.5565 183.188 18.9965H182.684C183.14 17.6765 183.92 16.6445 185.024 15.9005C186.128 15.1325 187.412 14.7485 188.876 14.7485C190.22 14.7485 191.324 15.0125 192.188 15.5405C193.052 16.0445 193.7 16.8245 194.132 17.8805C194.564 18.9125 194.78 20.2205 194.78 21.8045V32.6405H191.144V21.9845C191.144 20.4965 190.88 19.4045 190.352 18.7085C189.848 18.0125 189.008 17.6645 187.832 17.6645C186.968 17.6645 186.212 17.8685 185.564 18.2765C184.916 18.6845 184.412 19.2845 184.052 20.0765C183.716 20.8445 183.548 21.7565 183.548 22.8125V32.6405H179.912V21.9845C179.912 20.4965 179.66 19.4045 179.156 18.7085C178.652 18.0125 177.812 17.6645 176.636 17.6645C175.748 17.6645 174.98 17.8685 174.332 18.2765C173.708 18.6845 173.228 19.2845 172.892 20.0765C172.556 20.8445 172.388 21.7565 172.388 22.8125V32.6405H168.752Z" fill="#0ABAB5"/>
</svg>
