<svg width="199" height="40" viewBox="0 0 199 40" fill="none" xmlns="http://www.w3.org/2000/svg">
<path d="M10.6501 15.1703L16.8101 18.1528L22.9701 21.1352L36.4149 15.1703V29.931C36.4149 33.5819 28.8417 37.2424 22.9701 37.9113C17.3674 37.0194 10.6501 33.5819 10.6501 29.931V15.1703Z" fill="#0ABAB5"/>
<path d="M43.9401 22.8477V10.9822L22.9701 2L2 10.9822L22.9701 21.1352M22.9701 21.1352L36.4149 15.1703V29.931C36.4149 33.5819 28.8417 37.2424 22.9701 37.9113C17.3674 37.0194 10.6501 33.5819 10.6501 29.931V15.1703L16.8101 18.1528L22.9701 21.1352Z" stroke="#0ABAB5" stroke-width="3" stroke-miterlimit="1.41421" stroke-linecap="round" stroke-linejoin="round"/>
<path d="M30.1809 29.9309L34.4204 27.9358V23.4469M30.1809 29.9309L25.9414 31.926V27.4371M30.1809 29.9309V20.9531M34.4204 23.4469V18.958L30.1809 20.9531M34.4204 23.4469L25.9414 27.4371M25.9414 27.4371V22.9482L30.1809 20.9531" stroke="#F9F9F9" stroke-width="1.5" stroke-linejoin="round"/>
<path d="M63.8341 33.7766C61.9981 33.7766 60.3321 33.4139 58.8361 32.6886C57.3401 31.9633 56.1501 30.8526 55.2661 29.3566C54.3821 27.8379 53.9401 25.9679 53.9401 23.7466V6.88264H57.0341V23.7126C57.0341 25.3219 57.3514 26.6593 57.9861 27.7246C58.6434 28.7899 59.4821 29.5833 60.5021 30.1046C61.5447 30.6033 62.6554 30.8526 63.8341 30.8526C65.0127 30.8526 66.1121 30.6033 67.1321 30.1046C68.1747 29.5833 69.0134 28.7899 69.6481 27.7246C70.3054 26.6593 70.6341 25.3219 70.6341 23.7126V6.88264H73.7281V23.7466C73.7281 25.9679 73.2861 27.8379 72.4021 29.3566C71.5181 30.8526 70.3281 31.9633 68.8321 32.6886C67.3361 33.4139 65.6701 33.7766 63.8341 33.7766ZM91.8501 33.6066V21.4006C91.8501 19.6326 91.4194 18.2953 90.5581 17.3886C89.6967 16.4593 88.5294 15.9946 87.0561 15.9946C86.0587 15.9946 85.1181 16.2099 84.2341 16.6406C83.3727 17.0713 82.6247 17.6153 81.9901 18.2726C81.3781 18.9299 80.9474 19.5759 80.6981 20.2106V33.6066H77.4681V13.1726H80.6981V16.0626C81.5594 15.0426 82.5907 14.2833 83.7921 13.7846C85.0161 13.2633 86.3194 13.0026 87.7021 13.0026C89.2207 13.0026 90.5354 13.3313 91.6461 13.9886C92.7794 14.6233 93.6294 15.5186 94.1961 16.6746C94.7854 17.8079 95.0801 19.0999 95.0801 20.5506V33.6066H91.8501ZM102.539 33.6066H99.2753V15.1106H102.539V33.6066ZM103.321 8.31064C103.321 8.96794 103.095 9.52334 102.641 9.97664C102.211 10.4073 101.633 10.6226 100.907 10.6226C100.182 10.6226 99.5927 10.4073 99.1393 9.97664C98.7087 9.52334 98.4933 8.96794 98.4933 8.31064C98.4933 7.65331 98.7087 7.1093 99.1393 6.67864C99.5927 6.24797 100.182 6.03264 100.907 6.03264C101.633 6.03264 102.211 6.24797 102.641 6.67864C103.095 7.1093 103.321 7.65331 103.321 8.31064ZM118.521 20.6526C120.674 20.6526 122.306 20.1426 123.417 19.1226C124.527 18.1026 125.083 16.7766 125.083 15.1446C125.083 13.3993 124.561 12.0733 123.519 11.1666C122.499 10.2373 120.867 9.77264 118.623 9.77264H107.097V6.88264H118.895C122 6.88264 124.346 7.63064 125.933 9.12664C127.519 10.6226 128.313 12.6286 128.313 15.1446C128.313 17.1619 127.701 18.9073 126.477 20.3806C125.275 21.8539 123.575 22.8173 121.377 23.2706L128.551 33.6066H124.777L117.603 23.5426H112.129V33.6066H109.035V10.9626H112.129V20.6526H118.521ZM129.075 23.3726C129.075 21.1966 129.529 19.3153 130.435 17.7286C131.342 16.1419 132.566 14.9406 134.107 14.1246C135.649 13.2859 137.337 12.8666 139.173 12.8666C141.1 12.8666 142.834 13.2859 144.375 14.1246C145.939 14.9406 147.163 16.1419 148.047 17.7286C148.931 19.3153 149.373 21.1966 149.373 23.3726C149.373 25.5713 148.931 27.4639 148.047 29.0506C147.186 30.6146 145.985 31.8159 144.443 32.6546C142.902 33.4706 141.145 33.8786 139.173 33.8786C137.337 33.8786 135.649 33.4706 134.107 32.6546C132.566 31.8159 131.342 30.6033 130.435 29.0166C129.529 27.4299 129.075 25.5486 129.075 23.3726ZM132.305 23.3726C132.305 24.8913 132.6 26.2286 133.189 27.3846C133.801 28.5179 134.629 29.4019 135.671 30.0366C136.714 30.6486 137.881 30.9546 139.173 30.9546C140.533 30.9546 141.746 30.6373 142.811 30.0026C143.877 29.3679 144.693 28.4839 145.259 27.3506C145.849 26.1946 146.143 24.8686 146.143 23.3726C146.143 20.9926 145.509 19.1339 144.239 17.7966C142.97 16.4593 141.281 15.7906 139.173 15.7906C137.111 15.7906 135.445 16.4593 134.175 17.7966C132.929 19.1339 132.305 20.9926 132.305 23.3726ZM150.161 23.3726C150.161 21.1966 150.614 19.3153 151.521 17.7286C152.427 16.1419 153.651 14.9406 155.193 14.1246C156.734 13.2859 158.423 12.8666 160.259 12.8666C162.185 12.8666 163.919 13.2859 165.461 14.1246C167.025 14.9406 168.249 16.1419 169.133 17.7286C170.017 19.3153 170.459 21.1966 170.459 23.3726C170.459 25.5713 170.017 27.4639 169.133 29.0506C168.271 30.6146 167.07 31.8159 165.529 32.6546C163.987 33.4706 162.231 33.8786 160.259 33.8786C158.423 33.8786 156.734 33.4706 155.193 32.6546C153.651 31.8159 152.427 30.6033 151.521 29.0166C150.614 27.4299 150.161 25.5486 150.161 23.3726ZM153.391 23.3726C153.391 24.8913 153.685 26.2286 154.275 27.3846C154.887 28.5179 155.714 29.4019 156.757 30.0366C157.799 30.6486 158.967 30.9546 160.259 30.9546C161.619 30.9546 162.831 30.6373 163.897 30.0026C164.962 29.3679 165.778 28.4839 166.345 27.3506C166.934 26.1946 167.229 24.8686 167.229 23.3726C167.229 20.9926 166.594 19.1339 165.325 17.7966C164.055 16.4593 162.367 15.7906 160.259 15.7906C158.196 15.7906 156.53 16.4593 155.261 17.7966C154.014 19.1339 153.391 20.9926 153.391 23.3726ZM195.692 33.6066V19.8026C195.692 18.5333 195.363 17.6039 194.706 17.0146C194.049 16.4026 193.21 16.0966 192.19 16.0966C191.465 16.0966 190.739 16.2893 190.014 16.6746C189.311 17.0599 188.711 17.5926 188.212 18.2726C187.713 18.9526 187.396 19.6893 187.26 20.4826V33.6066H184.03V19.8026C184.03 18.5333 183.701 17.6039 183.044 17.0146C182.387 16.4026 181.548 16.0966 180.528 16.0966C179.78 16.0966 179.032 16.3233 178.284 16.7766C177.536 17.2073 176.901 17.7966 176.38 18.5446C175.859 19.2926 175.575 20.1086 175.53 20.9926L175.496 20.7546V33.6066H172.266V13.1726H175.496V16.0626C176.063 15.1786 176.879 14.4533 177.944 13.8866C179.032 13.3199 180.109 13.0366 181.174 13.0366C182.443 13.0366 183.577 13.3313 184.574 13.9206C185.571 14.5099 186.297 15.3373 186.75 16.4026C187.339 15.4053 188.201 14.6006 189.334 13.9886C190.467 13.3539 191.623 13.0366 192.802 13.0366C194.57 13.0366 196.032 13.5806 197.188 14.6686C198.344 15.7339 198.922 17.1959 198.922 19.0546V33.6066H195.692Z" fill="#0ABAB5"/>
</svg>
